<?xml version="1.0" encoding="utf-8"?><!-- Uploaded to: SVG Repo, www.svgrepo.com, Generator: SVG Repo Mixer Tools -->
<svg width="800px" height="800px" viewBox="0 0 400 400" fill="none" xmlns="http://www.w3.org/2000/svg">
<path d="M69 150.936C144.654 111.512 218.822 115.319 300.542 136.059" stroke="#000000" stroke-opacity="0.9" stroke-width="16" stroke-linecap="round" stroke-linejoin="round"/>
<path d="M108.01 121.189C143.403 6.75972 229.61 30.2203 260.274 122" stroke="#000000" stroke-opacity="0.9" stroke-width="16" stroke-linecap="round" stroke-linejoin="round"/>
<path d="M111 161C95.0002 161.56 111 177.233 121 185C111 280 257 278 247 178C253.667 172 263 159.2 247 156" stroke="#000000" stroke-opacity="0.9" stroke-width="16" stroke-linecap="round" stroke-linejoin="round"/>
<path d="M165 174C165 170.678 165 167.332 165 164" stroke="#000000" stroke-opacity="0.9" stroke-width="16" stroke-linecap="round" stroke-linejoin="round"/>
<path d="M202 174C199.863 170.684 200.002 167.36 200.002 164" stroke="#000000" stroke-opacity="0.9" stroke-width="16" stroke-linecap="round" stroke-linejoin="round"/>
<path d="M198.684 211C190.46 217.142 177.038 217.142 171 213.783" stroke="#000000" stroke-opacity="0.9" stroke-width="16" stroke-linecap="round" stroke-linejoin="round"/>
<path d="M81.6422 343.665C78.0834 239.939 236.75 244.476 262.245 283.163C275.092 302.657 277.633 332.199 281.665 356" stroke="#000000" stroke-opacity="0.9" stroke-width="16" stroke-linecap="round" stroke-linejoin="round"/>
<path d="M132.212 266.677C131.918 278.857 132.397 291.033 132.975 303.161" stroke="#000000" stroke-opacity="0.9" stroke-width="16" stroke-linecap="round" stroke-linejoin="round"/>
<path d="M135.693 307.774C164.524 304.109 196.079 310.137 223.779 308.152" stroke="#000000" stroke-opacity="0.9" stroke-width="16" stroke-linecap="round" stroke-linejoin="round"/>
<path d="M230.188 274.226C224.319 299.554 229.685 324.313 229.685 349.71" stroke="#000000" stroke-opacity="0.9" stroke-width="16" stroke-linecap="round" stroke-linejoin="round"/>
<path d="M132.097 285.548C134.539 306.642 132.727 328.854 135.517 349.71" stroke="#000000" stroke-opacity="0.9" stroke-width="16" stroke-linecap="round" stroke-linejoin="round"/>
<path d="M253.604 197.254C241.259 328.583 363.287 276.062 324.272 191.193" stroke="#000000" stroke-opacity="0.9" stroke-width="16" stroke-linecap="round" stroke-linejoin="round"/>
<path d="M290.423 197.484C290.649 250.303 290.423 303.501 290.423 356" stroke="#000000" stroke-opacity="0.9" stroke-width="16" stroke-linecap="round" stroke-linejoin="round"/>
</svg>